<mxfile host="app.diagrams.net" agent="Mozilla/5.0 (Windows NT 10.0; Win64; x64) AppleWebKit/537.36 (KHTML, like Gecko) Chrome/128.0.0.0 Safari/537.36 Edg/128.0.0.0" version="24.7.14">
  <diagram id="R2lEEEUBdFMjLlhIrx00" name="Page-1">
    <mxGraphModel dx="2571" dy="1479" grid="1" gridSize="10" guides="1" tooltips="1" connect="1" arrows="1" fold="1" page="1" pageScale="1" pageWidth="850" pageHeight="1100" math="0" shadow="0" extFonts="Permanent Marker^https://fonts.googleapis.com/css?family=Permanent+Marker">
      <root>
        <mxCell id="0" />
        <mxCell id="1" parent="0" />
        <mxCell id="kTR_7HhCARbB6sf2-aNd-1" value="Empleado" style="whiteSpace=wrap;html=1;align=center;" parent="1" vertex="1">
          <mxGeometry x="50" y="440" width="100" height="40" as="geometry" />
        </mxCell>
        <mxCell id="kTR_7HhCARbB6sf2-aNd-2" value="Cedula" style="ellipse;whiteSpace=wrap;html=1;align=center;" parent="1" vertex="1">
          <mxGeometry x="-150" y="500" width="100" height="40" as="geometry" />
        </mxCell>
        <mxCell id="kTR_7HhCARbB6sf2-aNd-3" value="Historicos" style="ellipse;shape=doubleEllipse;margin=3;whiteSpace=wrap;html=1;align=center;" parent="1" vertex="1">
          <mxGeometry x="-40" y="550" width="100" height="40" as="geometry" />
        </mxCell>
        <mxCell id="kTR_7HhCARbB6sf2-aNd-4" value="Nombre&lt;div&gt;Completo&lt;/div&gt;" style="ellipse;whiteSpace=wrap;html=1;align=center;" parent="1" vertex="1">
          <mxGeometry x="-150" y="550" width="100" height="40" as="geometry" />
        </mxCell>
        <mxCell id="kTR_7HhCARbB6sf2-aNd-5" value="Genero" style="ellipse;whiteSpace=wrap;html=1;align=center;" parent="1" vertex="1">
          <mxGeometry x="-150" y="450" width="100" height="40" as="geometry" />
        </mxCell>
        <mxCell id="kTR_7HhCARbB6sf2-aNd-6" value="FechaNacimiento" style="ellipse;whiteSpace=wrap;html=1;align=center;" parent="1" vertex="1">
          <mxGeometry x="-80" y="610" width="100" height="40" as="geometry" />
        </mxCell>
        <mxCell id="kTR_7HhCARbB6sf2-aNd-7" value="Cedula" style="ellipse;whiteSpace=wrap;html=1;align=center;" parent="1" vertex="1">
          <mxGeometry x="160" y="550" width="100" height="40" as="geometry" />
        </mxCell>
        <mxCell id="kTR_7HhCARbB6sf2-aNd-8" value="Edad" style="ellipse;whiteSpace=wrap;html=1;align=center;dashed=1;" parent="1" vertex="1">
          <mxGeometry x="-220" y="610" width="100" height="40" as="geometry" />
        </mxCell>
        <mxCell id="kTR_7HhCARbB6sf2-aNd-9" value="Lugar&lt;div&gt;Residencia&lt;/div&gt;" style="ellipse;whiteSpace=wrap;html=1;align=center;" parent="1" vertex="1">
          <mxGeometry x="260" y="540" width="100" height="40" as="geometry" />
        </mxCell>
        <mxCell id="kTR_7HhCARbB6sf2-aNd-10" value="telefono" style="ellipse;whiteSpace=wrap;html=1;align=center;" parent="1" vertex="1">
          <mxGeometry x="260" y="480" width="100" height="40" as="geometry" />
        </mxCell>
        <mxCell id="kTR_7HhCARbB6sf2-aNd-11" value="FechaIngreso" style="ellipse;whiteSpace=wrap;html=1;align=center;" parent="1" vertex="1">
          <mxGeometry x="-150" y="340" width="100" height="40" as="geometry" />
        </mxCell>
        <mxCell id="kTR_7HhCARbB6sf2-aNd-12" value="Salario&lt;div&gt;Actual&lt;/div&gt;" style="ellipse;whiteSpace=wrap;html=1;align=center;" parent="1" vertex="1">
          <mxGeometry x="260" y="350" width="100" height="40" as="geometry" />
        </mxCell>
        <mxCell id="kTR_7HhCARbB6sf2-aNd-13" value="&lt;div&gt;Puesto&lt;/div&gt;&lt;div&gt;Actual&lt;/div&gt;" style="ellipse;whiteSpace=wrap;html=1;align=center;" parent="1" vertex="1">
          <mxGeometry x="260" y="410" width="100" height="40" as="geometry" />
        </mxCell>
        <mxCell id="kTR_7HhCARbB6sf2-aNd-14" value="&lt;div&gt;Departamento&lt;/div&gt;&lt;div&gt;Actual&lt;/div&gt;" style="ellipse;whiteSpace=wrap;html=1;align=center;" parent="1" vertex="1">
          <mxGeometry x="-150" y="390" width="100" height="40" as="geometry" />
        </mxCell>
        <mxCell id="kTR_7HhCARbB6sf2-aNd-16" value="" style="endArrow=none;html=1;rounded=0;entryX=0;entryY=0;entryDx=0;entryDy=0;exitX=1;exitY=0.5;exitDx=0;exitDy=0;" parent="1" source="kTR_7HhCARbB6sf2-aNd-11" target="kTR_7HhCARbB6sf2-aNd-1" edge="1">
          <mxGeometry relative="1" as="geometry">
            <mxPoint x="-30" y="390" as="sourcePoint" />
            <mxPoint x="130" y="390" as="targetPoint" />
          </mxGeometry>
        </mxCell>
        <mxCell id="kTR_7HhCARbB6sf2-aNd-17" value="" style="endArrow=none;html=1;rounded=0;entryX=0;entryY=0;entryDx=0;entryDy=0;" parent="1" source="kTR_7HhCARbB6sf2-aNd-14" edge="1">
          <mxGeometry relative="1" as="geometry">
            <mxPoint x="-50" y="370" as="sourcePoint" />
            <mxPoint x="50" y="450" as="targetPoint" />
          </mxGeometry>
        </mxCell>
        <mxCell id="kTR_7HhCARbB6sf2-aNd-18" value="" style="endArrow=none;html=1;rounded=0;entryX=0;entryY=0;entryDx=0;entryDy=0;exitX=1;exitY=0;exitDx=0;exitDy=0;" parent="1" source="kTR_7HhCARbB6sf2-aNd-5" edge="1">
          <mxGeometry relative="1" as="geometry">
            <mxPoint x="-58" y="430" as="sourcePoint" />
            <mxPoint x="50" y="459" as="targetPoint" />
          </mxGeometry>
        </mxCell>
        <mxCell id="kTR_7HhCARbB6sf2-aNd-19" value="" style="endArrow=none;html=1;rounded=0;entryX=0;entryY=1;entryDx=0;entryDy=0;exitX=1;exitY=0;exitDx=0;exitDy=0;" parent="1" source="kTR_7HhCARbB6sf2-aNd-2" target="kTR_7HhCARbB6sf2-aNd-1" edge="1">
          <mxGeometry relative="1" as="geometry">
            <mxPoint x="-65" y="490" as="sourcePoint" />
            <mxPoint x="50" y="493" as="targetPoint" />
          </mxGeometry>
        </mxCell>
        <mxCell id="kTR_7HhCARbB6sf2-aNd-20" value="" style="endArrow=none;html=1;rounded=0;entryX=0.102;entryY=0.998;entryDx=0;entryDy=0;exitX=1;exitY=0;exitDx=0;exitDy=0;entryPerimeter=0;" parent="1" source="kTR_7HhCARbB6sf2-aNd-4" target="kTR_7HhCARbB6sf2-aNd-1" edge="1">
          <mxGeometry relative="1" as="geometry">
            <mxPoint x="-47.5" y="526" as="sourcePoint" />
            <mxPoint x="67.5" y="500" as="targetPoint" />
          </mxGeometry>
        </mxCell>
        <mxCell id="kTR_7HhCARbB6sf2-aNd-21" value="" style="endArrow=none;html=1;rounded=0;entryX=0.25;entryY=1;entryDx=0;entryDy=0;exitX=0.7;exitY=0.072;exitDx=0;exitDy=0;exitPerimeter=0;" parent="1" source="kTR_7HhCARbB6sf2-aNd-3" target="kTR_7HhCARbB6sf2-aNd-1" edge="1">
          <mxGeometry relative="1" as="geometry">
            <mxPoint x="80" y="566" as="sourcePoint" />
            <mxPoint x="205" y="490" as="targetPoint" />
          </mxGeometry>
        </mxCell>
        <mxCell id="kTR_7HhCARbB6sf2-aNd-22" value="" style="endArrow=none;html=1;rounded=0;entryX=0.869;entryY=0.983;entryDx=0;entryDy=0;exitX=0;exitY=0;exitDx=0;exitDy=0;entryPerimeter=0;" parent="1" source="kTR_7HhCARbB6sf2-aNd-7" target="kTR_7HhCARbB6sf2-aNd-1" edge="1">
          <mxGeometry relative="1" as="geometry">
            <mxPoint x="108" y="570" as="sourcePoint" />
            <mxPoint x="150" y="500" as="targetPoint" />
          </mxGeometry>
        </mxCell>
        <mxCell id="kTR_7HhCARbB6sf2-aNd-23" value="" style="endArrow=none;html=1;rounded=0;entryX=0.869;entryY=0.983;entryDx=0;entryDy=0;entryPerimeter=0;exitX=1;exitY=0.5;exitDx=0;exitDy=0;" parent="1" source="kTR_7HhCARbB6sf2-aNd-6" edge="1">
          <mxGeometry relative="1" as="geometry">
            <mxPoint x="60" y="630" as="sourcePoint" />
            <mxPoint x="81" y="480" as="targetPoint" />
            <Array as="points">
              <mxPoint x="80" y="560" />
            </Array>
          </mxGeometry>
        </mxCell>
        <mxCell id="kTR_7HhCARbB6sf2-aNd-25" value="" style="endArrow=none;html=1;rounded=0;entryX=0.869;entryY=0.983;entryDx=0;entryDy=0;exitX=0;exitY=0;exitDx=0;exitDy=0;entryPerimeter=0;" parent="1" source="kTR_7HhCARbB6sf2-aNd-9" edge="1">
          <mxGeometry relative="1" as="geometry">
            <mxPoint x="188" y="540" as="sourcePoint" />
            <mxPoint x="150" y="463" as="targetPoint" />
          </mxGeometry>
        </mxCell>
        <mxCell id="kTR_7HhCARbB6sf2-aNd-26" value="" style="endArrow=none;html=1;rounded=0;entryX=0.869;entryY=0.983;entryDx=0;entryDy=0;exitX=0;exitY=0.5;exitDx=0;exitDy=0;entryPerimeter=0;" parent="1" source="kTR_7HhCARbB6sf2-aNd-10" edge="1">
          <mxGeometry relative="1" as="geometry">
            <mxPoint x="275" y="540" as="sourcePoint" />
            <mxPoint x="150" y="457" as="targetPoint" />
          </mxGeometry>
        </mxCell>
        <mxCell id="kTR_7HhCARbB6sf2-aNd-27" value="" style="endArrow=none;html=1;rounded=0;entryX=0.869;entryY=0.983;entryDx=0;entryDy=0;exitX=0;exitY=1;exitDx=0;exitDy=0;entryPerimeter=0;" parent="1" source="kTR_7HhCARbB6sf2-aNd-13" edge="1">
          <mxGeometry relative="1" as="geometry">
            <mxPoint x="260" y="493" as="sourcePoint" />
            <mxPoint x="150" y="450" as="targetPoint" />
          </mxGeometry>
        </mxCell>
        <mxCell id="kTR_7HhCARbB6sf2-aNd-28" value="" style="endArrow=none;html=1;rounded=0;entryX=0.869;entryY=0.983;entryDx=0;entryDy=0;exitX=0;exitY=1;exitDx=0;exitDy=0;entryPerimeter=0;" parent="1" source="kTR_7HhCARbB6sf2-aNd-12" edge="1">
          <mxGeometry relative="1" as="geometry">
            <mxPoint x="275" y="434" as="sourcePoint" />
            <mxPoint x="150" y="440" as="targetPoint" />
          </mxGeometry>
        </mxCell>
        <mxCell id="kTR_7HhCARbB6sf2-aNd-29" value="" style="endArrow=none;html=1;rounded=0;exitX=1;exitY=0.5;exitDx=0;exitDy=0;entryX=0;entryY=0.5;entryDx=0;entryDy=0;" parent="1" source="kTR_7HhCARbB6sf2-aNd-8" target="kTR_7HhCARbB6sf2-aNd-6" edge="1">
          <mxGeometry relative="1" as="geometry">
            <mxPoint x="-116.25" y="629.71" as="sourcePoint" />
            <mxPoint x="-83.75" y="629.71" as="targetPoint" />
          </mxGeometry>
        </mxCell>
        <mxCell id="kTR_7HhCARbB6sf2-aNd-30" value="Registro Salarios" style="whiteSpace=wrap;html=1;align=center;" parent="1" vertex="1">
          <mxGeometry x="550" y="280" width="100" height="40" as="geometry" />
        </mxCell>
        <mxCell id="kTR_7HhCARbB6sf2-aNd-31" value="Mes" style="ellipse;whiteSpace=wrap;html=1;align=center;" parent="1" vertex="1">
          <mxGeometry x="590" y="370" width="100" height="40" as="geometry" />
        </mxCell>
        <mxCell id="kTR_7HhCARbB6sf2-aNd-32" value="Empleado" style="ellipse;whiteSpace=wrap;html=1;align=center;" parent="1" vertex="1">
          <mxGeometry x="480" y="370" width="100" height="40" as="geometry" />
        </mxCell>
        <mxCell id="kTR_7HhCARbB6sf2-aNd-33" value="Horas mensuales" style="ellipse;whiteSpace=wrap;html=1;align=center;" parent="1" vertex="1">
          <mxGeometry x="700" y="360" width="100" height="40" as="geometry" />
        </mxCell>
        <mxCell id="kTR_7HhCARbB6sf2-aNd-34" value="" style="endArrow=none;html=1;rounded=0;entryX=0.6;entryY=0;entryDx=0;entryDy=0;exitX=0;exitY=1;exitDx=0;exitDy=0;entryPerimeter=0;" parent="1" target="kTR_7HhCARbB6sf2-aNd-32" edge="1">
          <mxGeometry relative="1" as="geometry">
            <mxPoint x="550" y="320" as="sourcePoint" />
            <mxPoint x="425" y="376" as="targetPoint" />
          </mxGeometry>
        </mxCell>
        <mxCell id="kTR_7HhCARbB6sf2-aNd-35" value="" style="endArrow=none;html=1;rounded=0;entryX=0.5;entryY=0;entryDx=0;entryDy=0;exitX=0;exitY=1;exitDx=0;exitDy=0;" parent="1" target="kTR_7HhCARbB6sf2-aNd-31" edge="1">
          <mxGeometry relative="1" as="geometry">
            <mxPoint x="620" y="320" as="sourcePoint" />
            <mxPoint x="610" y="370" as="targetPoint" />
          </mxGeometry>
        </mxCell>
        <mxCell id="kTR_7HhCARbB6sf2-aNd-36" value="" style="endArrow=none;html=1;rounded=0;entryX=0;entryY=0;entryDx=0;entryDy=0;exitX=0;exitY=1;exitDx=0;exitDy=0;" parent="1" target="kTR_7HhCARbB6sf2-aNd-33" edge="1">
          <mxGeometry relative="1" as="geometry">
            <mxPoint x="650" y="320" as="sourcePoint" />
            <mxPoint x="680" y="380" as="targetPoint" />
          </mxGeometry>
        </mxCell>
        <mxCell id="kTR_7HhCARbB6sf2-aNd-37" value="Reportes" style="whiteSpace=wrap;html=1;align=center;" parent="1" vertex="1">
          <mxGeometry x="570" y="470" width="100" height="40" as="geometry" />
        </mxCell>
        <mxCell id="kTR_7HhCARbB6sf2-aNd-39" value="MontoTotal&lt;div&gt;´PlanillaMes&lt;/div&gt;" style="ellipse;whiteSpace=wrap;html=1;align=center;" parent="1" vertex="1">
          <mxGeometry x="480" y="550" width="100" height="40" as="geometry" />
        </mxCell>
        <mxCell id="kTR_7HhCARbB6sf2-aNd-40" value="Monto&lt;div&gt;PlanillaAño&lt;/div&gt;" style="ellipse;whiteSpace=wrap;html=1;align=center;" parent="1" vertex="1">
          <mxGeometry x="480" y="620" width="100" height="40" as="geometry" />
        </mxCell>
        <mxCell id="kTR_7HhCARbB6sf2-aNd-41" value="MontoPlanillaDep&lt;div&gt;Mes&lt;/div&gt;" style="ellipse;whiteSpace=wrap;html=1;align=center;" parent="1" vertex="1">
          <mxGeometry x="690" y="550" width="110" height="40" as="geometry" />
        </mxCell>
        <mxCell id="kTR_7HhCARbB6sf2-aNd-42" value="MontoPlanillaDep&lt;div&gt;Año&lt;/div&gt;" style="ellipse;whiteSpace=wrap;html=1;align=center;" parent="1" vertex="1">
          <mxGeometry x="680" y="630" width="110" height="40" as="geometry" />
        </mxCell>
        <mxCell id="kTR_7HhCARbB6sf2-aNd-43" value="PorcentajePlanilla&lt;div&gt;Dep&lt;/div&gt;" style="ellipse;whiteSpace=wrap;html=1;align=center;" parent="1" vertex="1">
          <mxGeometry x="560" y="660" width="120" height="40" as="geometry" />
        </mxCell>
        <mxCell id="kTR_7HhCARbB6sf2-aNd-44" value="" style="endArrow=none;html=1;rounded=0;entryX=0.5;entryY=1;entryDx=0;entryDy=0;exitX=0.5;exitY=0;exitDx=0;exitDy=0;" parent="1" source="kTR_7HhCARbB6sf2-aNd-43" target="kTR_7HhCARbB6sf2-aNd-37" edge="1">
          <mxGeometry relative="1" as="geometry">
            <mxPoint x="624.9" y="660" as="sourcePoint" />
            <mxPoint x="615.0999999999998" y="513.5999999999999" as="targetPoint" />
          </mxGeometry>
        </mxCell>
        <mxCell id="kTR_7HhCARbB6sf2-aNd-45" value="" style="endArrow=none;html=1;rounded=0;entryX=0.75;entryY=1;entryDx=0;entryDy=0;exitX=0;exitY=0;exitDx=0;exitDy=0;" parent="1" source="kTR_7HhCARbB6sf2-aNd-41" target="kTR_7HhCARbB6sf2-aNd-37" edge="1">
          <mxGeometry relative="1" as="geometry">
            <mxPoint x="630" y="670" as="sourcePoint" />
            <mxPoint x="630" y="520" as="targetPoint" />
          </mxGeometry>
        </mxCell>
        <mxCell id="kTR_7HhCARbB6sf2-aNd-46" value="" style="endArrow=none;html=1;rounded=0;entryX=0.75;entryY=1;entryDx=0;entryDy=0;exitX=0;exitY=0;exitDx=0;exitDy=0;" parent="1" source="kTR_7HhCARbB6sf2-aNd-42" edge="1">
          <mxGeometry relative="1" as="geometry">
            <mxPoint x="690" y="556" as="sourcePoint" />
            <mxPoint x="629" y="510" as="targetPoint" />
          </mxGeometry>
        </mxCell>
        <mxCell id="kTR_7HhCARbB6sf2-aNd-47" value="" style="endArrow=none;html=1;rounded=0;entryX=0.25;entryY=1;entryDx=0;entryDy=0;exitX=1;exitY=0;exitDx=0;exitDy=0;" parent="1" source="kTR_7HhCARbB6sf2-aNd-39" target="kTR_7HhCARbB6sf2-aNd-37" edge="1">
          <mxGeometry relative="1" as="geometry">
            <mxPoint x="611" y="566" as="sourcePoint" />
            <mxPoint x="550" y="520" as="targetPoint" />
          </mxGeometry>
        </mxCell>
        <mxCell id="kTR_7HhCARbB6sf2-aNd-48" value="" style="endArrow=none;html=1;rounded=0;entryX=0.387;entryY=1.067;entryDx=0;entryDy=0;entryPerimeter=0;exitX=1;exitY=0;exitDx=0;exitDy=0;" parent="1" source="kTR_7HhCARbB6sf2-aNd-40" target="kTR_7HhCARbB6sf2-aNd-37" edge="1">
          <mxGeometry relative="1" as="geometry">
            <mxPoint x="590" y="610" as="sourcePoint" />
            <mxPoint x="583" y="534" as="targetPoint" />
          </mxGeometry>
        </mxCell>
        <mxCell id="kTR_7HhCARbB6sf2-aNd-49" value="Familas" style="whiteSpace=wrap;html=1;align=center;" parent="1" vertex="1">
          <mxGeometry x="-520" y="260" width="100" height="40" as="geometry" />
        </mxCell>
        <mxCell id="kTR_7HhCARbB6sf2-aNd-50" value="NombreFamilia&lt;div&gt;Articulo&lt;/div&gt;" style="ellipse;whiteSpace=wrap;html=1;align=center;" parent="1" vertex="1">
          <mxGeometry x="-650" y="340" width="100" height="40" as="geometry" />
        </mxCell>
        <mxCell id="kTR_7HhCARbB6sf2-aNd-51" value="CodigoFamilia&lt;div&gt;Articulo&lt;/div&gt;" style="ellipse;whiteSpace=wrap;html=1;align=center;" parent="1" vertex="1">
          <mxGeometry x="-650" y="410" width="100" height="40" as="geometry" />
        </mxCell>
        <mxCell id="kTR_7HhCARbB6sf2-aNd-52" value="Activo" style="ellipse;whiteSpace=wrap;html=1;align=center;" parent="1" vertex="1">
          <mxGeometry x="-390" y="340" width="100" height="40" as="geometry" />
        </mxCell>
        <mxCell id="kTR_7HhCARbB6sf2-aNd-53" value="Descripción familia" style="ellipse;whiteSpace=wrap;html=1;align=center;" parent="1" vertex="1">
          <mxGeometry x="-390" y="410" width="100" height="40" as="geometry" />
        </mxCell>
        <mxCell id="kTR_7HhCARbB6sf2-aNd-54" value="" style="endArrow=none;html=1;rounded=0;entryX=0;entryY=1;entryDx=0;entryDy=0;exitX=1;exitY=0;exitDx=0;exitDy=0;" parent="1" source="kTR_7HhCARbB6sf2-aNd-50" target="kTR_7HhCARbB6sf2-aNd-49" edge="1">
          <mxGeometry relative="1" as="geometry">
            <mxPoint x="-540" y="330" as="sourcePoint" />
            <mxPoint x="-440" y="410" as="targetPoint" />
          </mxGeometry>
        </mxCell>
        <mxCell id="kTR_7HhCARbB6sf2-aNd-55" value="" style="endArrow=none;html=1;rounded=0;entryX=1;entryY=1;entryDx=0;entryDy=0;exitX=0.048;exitY=0.288;exitDx=0;exitDy=0;exitPerimeter=0;" parent="1" source="kTR_7HhCARbB6sf2-aNd-52" target="kTR_7HhCARbB6sf2-aNd-49" edge="1">
          <mxGeometry relative="1" as="geometry">
            <mxPoint x="-450" y="360" as="sourcePoint" />
            <mxPoint x="-405" y="314" as="targetPoint" />
            <Array as="points">
              <mxPoint x="-400" y="330" />
            </Array>
          </mxGeometry>
        </mxCell>
        <mxCell id="kTR_7HhCARbB6sf2-aNd-56" value="" style="endArrow=none;html=1;rounded=0;entryX=1;entryY=1;entryDx=0;entryDy=0;exitX=1;exitY=0;exitDx=0;exitDy=0;" parent="1" source="kTR_7HhCARbB6sf2-aNd-51" edge="1">
          <mxGeometry relative="1" as="geometry">
            <mxPoint x="-475" y="352" as="sourcePoint" />
            <mxPoint x="-510" y="300" as="targetPoint" />
          </mxGeometry>
        </mxCell>
        <mxCell id="kTR_7HhCARbB6sf2-aNd-57" value="" style="endArrow=none;html=1;rounded=0;exitX=0;exitY=0;exitDx=0;exitDy=0;" parent="1" source="kTR_7HhCARbB6sf2-aNd-53" edge="1">
          <mxGeometry relative="1" as="geometry">
            <mxPoint x="-497.5" y="440" as="sourcePoint" />
            <mxPoint x="-430" y="300" as="targetPoint" />
          </mxGeometry>
        </mxCell>
        <mxCell id="kTR_7HhCARbB6sf2-aNd-58" value="Articulos" style="whiteSpace=wrap;html=1;align=center;" parent="1" vertex="1">
          <mxGeometry x="-230" y="-20" width="100" height="40" as="geometry" />
        </mxCell>
        <mxCell id="kTR_7HhCARbB6sf2-aNd-59" value="NombreArticulo" style="ellipse;whiteSpace=wrap;html=1;align=center;" parent="1" vertex="1">
          <mxGeometry x="-370" y="230" width="100" height="40" as="geometry" />
        </mxCell>
        <mxCell id="kTR_7HhCARbB6sf2-aNd-60" value="CodigoArticulo" style="ellipse;whiteSpace=wrap;html=1;align=center;" parent="1" vertex="1">
          <mxGeometry x="-90" y="230" width="100" height="40" as="geometry" />
        </mxCell>
        <mxCell id="kTR_7HhCARbB6sf2-aNd-61" value="Activo" style="ellipse;whiteSpace=wrap;html=1;align=center;" parent="1" vertex="1">
          <mxGeometry x="-90" y="160" width="100" height="40" as="geometry" />
        </mxCell>
        <mxCell id="kTR_7HhCARbB6sf2-aNd-62" value="Descripcion" style="ellipse;whiteSpace=wrap;html=1;align=center;" parent="1" vertex="1">
          <mxGeometry x="-90" y="100" width="100" height="40" as="geometry" />
        </mxCell>
        <mxCell id="kTR_7HhCARbB6sf2-aNd-63" value="FamiliaArticulo" style="ellipse;whiteSpace=wrap;html=1;align=center;" parent="1" vertex="1">
          <mxGeometry x="-370" y="170" width="100" height="40" as="geometry" />
        </mxCell>
        <mxCell id="kTR_7HhCARbB6sf2-aNd-64" value="Peso" style="ellipse;whiteSpace=wrap;html=1;align=center;" parent="1" vertex="1">
          <mxGeometry x="-90" y="40" width="100" height="40" as="geometry" />
        </mxCell>
        <mxCell id="kTR_7HhCARbB6sf2-aNd-65" value="Costo" style="ellipse;whiteSpace=wrap;html=1;align=center;" parent="1" vertex="1">
          <mxGeometry x="-370" y="40" width="100" height="40" as="geometry" />
        </mxCell>
        <mxCell id="kTR_7HhCARbB6sf2-aNd-66" value="PrecioEstandar" style="ellipse;whiteSpace=wrap;html=1;align=center;" parent="1" vertex="1">
          <mxGeometry x="-370" y="100" width="100" height="40" as="geometry" />
        </mxCell>
        <mxCell id="kTR_7HhCARbB6sf2-aNd-69" value="" style="endArrow=none;html=1;rounded=0;entryX=1;entryY=1;entryDx=0;entryDy=0;" parent="1" source="kTR_7HhCARbB6sf2-aNd-65" edge="1">
          <mxGeometry relative="1" as="geometry">
            <mxPoint x="-285" y="136" as="sourcePoint" />
            <mxPoint x="-230" y="20" as="targetPoint" />
          </mxGeometry>
        </mxCell>
        <mxCell id="kTR_7HhCARbB6sf2-aNd-70" value="" style="endArrow=none;html=1;rounded=0;entryX=0;entryY=0;entryDx=0;entryDy=0;exitX=1;exitY=1;exitDx=0;exitDy=0;" parent="1" source="kTR_7HhCARbB6sf2-aNd-58" target="kTR_7HhCARbB6sf2-aNd-64" edge="1">
          <mxGeometry relative="1" as="geometry">
            <mxPoint x="-137" y="55" as="sourcePoint" />
            <mxPoint x="-80" y="30" as="targetPoint" />
          </mxGeometry>
        </mxCell>
        <mxCell id="kTR_7HhCARbB6sf2-aNd-71" value="" style="endArrow=none;html=1;rounded=0;entryX=1;entryY=1;entryDx=0;entryDy=0;" parent="1" source="kTR_7HhCARbB6sf2-aNd-66" edge="1">
          <mxGeometry relative="1" as="geometry">
            <mxPoint x="-270" y="45" as="sourcePoint" />
            <mxPoint x="-213" y="20" as="targetPoint" />
          </mxGeometry>
        </mxCell>
        <mxCell id="kTR_7HhCARbB6sf2-aNd-72" value="" style="endArrow=none;html=1;rounded=0;entryX=0;entryY=0;entryDx=0;entryDy=0;exitX=1;exitY=1;exitDx=0;exitDy=0;" parent="1" target="kTR_7HhCARbB6sf2-aNd-62" edge="1">
          <mxGeometry relative="1" as="geometry">
            <mxPoint x="-145" y="20" as="sourcePoint" />
            <mxPoint x="-90" y="46" as="targetPoint" />
          </mxGeometry>
        </mxCell>
        <mxCell id="kTR_7HhCARbB6sf2-aNd-73" value="" style="endArrow=none;html=1;rounded=0;entryX=0.25;entryY=1;entryDx=0;entryDy=0;exitX=1;exitY=0;exitDx=0;exitDy=0;" parent="1" source="kTR_7HhCARbB6sf2-aNd-63" target="kTR_7HhCARbB6sf2-aNd-58" edge="1">
          <mxGeometry relative="1" as="geometry">
            <mxPoint x="-290" y="112" as="sourcePoint" />
            <mxPoint x="-203" y="30" as="targetPoint" />
          </mxGeometry>
        </mxCell>
        <mxCell id="kTR_7HhCARbB6sf2-aNd-74" value="" style="endArrow=none;html=1;rounded=0;entryX=0.25;entryY=1;entryDx=0;entryDy=0;exitX=0;exitY=0;exitDx=0;exitDy=0;" parent="1" source="kTR_7HhCARbB6sf2-aNd-61" edge="1">
          <mxGeometry relative="1" as="geometry">
            <mxPoint x="-230" y="176" as="sourcePoint" />
            <mxPoint x="-150" y="20" as="targetPoint" />
          </mxGeometry>
        </mxCell>
        <mxCell id="kTR_7HhCARbB6sf2-aNd-75" value="" style="endArrow=none;html=1;rounded=0;entryX=0.25;entryY=1;entryDx=0;entryDy=0;exitX=1;exitY=0;exitDx=0;exitDy=0;" parent="1" source="kTR_7HhCARbB6sf2-aNd-59" edge="1">
          <mxGeometry relative="1" as="geometry">
            <mxPoint x="-270" y="176" as="sourcePoint" />
            <mxPoint x="-190" y="20" as="targetPoint" />
            <Array as="points" />
          </mxGeometry>
        </mxCell>
        <mxCell id="kTR_7HhCARbB6sf2-aNd-76" value="" style="endArrow=none;html=1;rounded=0;entryX=0.25;entryY=1;entryDx=0;entryDy=0;exitX=0;exitY=0;exitDx=0;exitDy=0;" parent="1" source="kTR_7HhCARbB6sf2-aNd-60" edge="1">
          <mxGeometry relative="1" as="geometry">
            <mxPoint x="-260" y="236" as="sourcePoint" />
            <mxPoint x="-165" y="20" as="targetPoint" />
            <Array as="points" />
          </mxGeometry>
        </mxCell>
        <mxCell id="0hqF8xnQqfK9WC91nhkx-1" value="Bodega" style="whiteSpace=wrap;html=1;align=center;" vertex="1" parent="1">
          <mxGeometry x="540" width="100" height="40" as="geometry" />
        </mxCell>
        <mxCell id="0hqF8xnQqfK9WC91nhkx-2" value="Codigo" style="ellipse;whiteSpace=wrap;html=1;align=center;" vertex="1" parent="1">
          <mxGeometry x="400" y="70" width="100" height="40" as="geometry" />
        </mxCell>
        <mxCell id="0hqF8xnQqfK9WC91nhkx-3" value="Nombre" style="ellipse;whiteSpace=wrap;html=1;align=center;" vertex="1" parent="1">
          <mxGeometry x="550" y="70" width="100" height="40" as="geometry" />
        </mxCell>
        <mxCell id="0hqF8xnQqfK9WC91nhkx-4" value="Ubicación" style="ellipse;whiteSpace=wrap;html=1;align=center;" vertex="1" parent="1">
          <mxGeometry x="470" y="130" width="100" height="40" as="geometry" />
        </mxCell>
        <mxCell id="0hqF8xnQqfK9WC91nhkx-5" value="Capacidad&lt;div&gt;Toneladas&lt;/div&gt;" style="ellipse;whiteSpace=wrap;html=1;align=center;" vertex="1" parent="1">
          <mxGeometry x="640" y="130" width="100" height="40" as="geometry" />
        </mxCell>
        <mxCell id="0hqF8xnQqfK9WC91nhkx-6" value="Espacio&lt;div&gt;cubico&lt;/div&gt;" style="ellipse;whiteSpace=wrap;html=1;align=center;" vertex="1" parent="1">
          <mxGeometry x="685" y="70" width="100" height="40" as="geometry" />
        </mxCell>
        <mxCell id="0hqF8xnQqfK9WC91nhkx-7" value="" style="endArrow=none;html=1;rounded=0;entryX=0;entryY=0.5;entryDx=0;entryDy=0;exitX=1;exitY=1;exitDx=0;exitDy=0;" edge="1" parent="1" source="0hqF8xnQqfK9WC91nhkx-1" target="0hqF8xnQqfK9WC91nhkx-6">
          <mxGeometry relative="1" as="geometry">
            <mxPoint x="635" y="40" as="sourcePoint" />
            <mxPoint x="700" y="86" as="targetPoint" />
          </mxGeometry>
        </mxCell>
        <mxCell id="0hqF8xnQqfK9WC91nhkx-8" value="" style="endArrow=none;html=1;rounded=0;entryX=0.578;entryY=0.013;entryDx=0;entryDy=0;exitX=1;exitY=1;exitDx=0;exitDy=0;entryPerimeter=0;" edge="1" parent="1" target="0hqF8xnQqfK9WC91nhkx-5">
          <mxGeometry relative="1" as="geometry">
            <mxPoint x="620" y="40" as="sourcePoint" />
            <mxPoint x="680" y="86" as="targetPoint" />
          </mxGeometry>
        </mxCell>
        <mxCell id="0hqF8xnQqfK9WC91nhkx-9" value="" style="endArrow=none;html=1;rounded=0;entryX=1;entryY=0;entryDx=0;entryDy=0;exitX=0;exitY=1;exitDx=0;exitDy=0;" edge="1" parent="1" source="0hqF8xnQqfK9WC91nhkx-1" target="0hqF8xnQqfK9WC91nhkx-2">
          <mxGeometry relative="1" as="geometry">
            <mxPoint x="522.5" y="44" as="sourcePoint" />
            <mxPoint x="537.5" y="80" as="targetPoint" />
          </mxGeometry>
        </mxCell>
        <mxCell id="0hqF8xnQqfK9WC91nhkx-10" value="" style="endArrow=none;html=1;rounded=0;entryX=0.5;entryY=0;entryDx=0;entryDy=0;exitX=1;exitY=1;exitDx=0;exitDy=0;" edge="1" parent="1" target="0hqF8xnQqfK9WC91nhkx-3">
          <mxGeometry relative="1" as="geometry">
            <mxPoint x="600" y="40" as="sourcePoint" />
            <mxPoint x="615" y="76" as="targetPoint" />
          </mxGeometry>
        </mxCell>
        <mxCell id="0hqF8xnQqfK9WC91nhkx-11" value="" style="endArrow=none;html=1;rounded=0;entryX=0.5;entryY=0;entryDx=0;entryDy=0;exitX=1;exitY=1;exitDx=0;exitDy=0;" edge="1" parent="1" target="0hqF8xnQqfK9WC91nhkx-4">
          <mxGeometry relative="1" as="geometry">
            <mxPoint x="569.72" y="40" as="sourcePoint" />
            <mxPoint x="569.72" y="70" as="targetPoint" />
          </mxGeometry>
        </mxCell>
        <mxCell id="0hqF8xnQqfK9WC91nhkx-12" value="Inventario" style="whiteSpace=wrap;html=1;align=center;" vertex="1" parent="1">
          <mxGeometry x="-760" y="-70" width="100" height="40" as="geometry" />
        </mxCell>
        <mxCell id="0hqF8xnQqfK9WC91nhkx-13" value="Mantenimiento&lt;div&gt;Bodega&lt;/div&gt;" style="ellipse;whiteSpace=wrap;html=1;align=center;" vertex="1" parent="1">
          <mxGeometry x="-870" y="40" width="100" height="40" as="geometry" />
        </mxCell>
        <mxCell id="0hqF8xnQqfK9WC91nhkx-14" value="Familia&amp;nbsp;&lt;div&gt;Articulos&lt;/div&gt;" style="ellipse;whiteSpace=wrap;html=1;align=center;" vertex="1" parent="1">
          <mxGeometry x="-730" y="40" width="100" height="40" as="geometry" />
        </mxCell>
        <mxCell id="0hqF8xnQqfK9WC91nhkx-15" value="Articulos" style="ellipse;whiteSpace=wrap;html=1;align=center;" vertex="1" parent="1">
          <mxGeometry x="-610" y="40" width="100" height="40" as="geometry" />
        </mxCell>
        <mxCell id="0hqF8xnQqfK9WC91nhkx-16" value="Movimientos&lt;div&gt;Inventario&lt;/div&gt;" style="ellipse;whiteSpace=wrap;html=1;align=center;" vertex="1" parent="1">
          <mxGeometry x="-510" y="-10" width="100" height="40" as="geometry" />
        </mxCell>
        <mxCell id="0hqF8xnQqfK9WC91nhkx-18" value="Familias" style="ellipse;shape=doubleEllipse;margin=3;whiteSpace=wrap;html=1;align=center;" vertex="1" parent="1">
          <mxGeometry x="740" width="100" height="40" as="geometry" />
        </mxCell>
        <mxCell id="0hqF8xnQqfK9WC91nhkx-20" value="" style="endArrow=none;html=1;rounded=0;entryX=0;entryY=0.5;entryDx=0;entryDy=0;exitX=1;exitY=1;exitDx=0;exitDy=0;" edge="1" parent="1" target="0hqF8xnQqfK9WC91nhkx-18">
          <mxGeometry relative="1" as="geometry">
            <mxPoint x="640" y="20" as="sourcePoint" />
            <mxPoint x="685" y="70" as="targetPoint" />
          </mxGeometry>
        </mxCell>
        <mxCell id="0hqF8xnQqfK9WC91nhkx-22" value="Cliente" style="whiteSpace=wrap;html=1;align=center;" vertex="1" parent="1">
          <mxGeometry x="170" y="-410" width="100" height="40" as="geometry" />
        </mxCell>
        <mxCell id="0hqF8xnQqfK9WC91nhkx-23" value="Cedula" style="ellipse;whiteSpace=wrap;html=1;align=center;" vertex="1" parent="1">
          <mxGeometry x="40" y="-290" width="100" height="40" as="geometry" />
        </mxCell>
        <mxCell id="0hqF8xnQqfK9WC91nhkx-24" value="Nombre" style="ellipse;whiteSpace=wrap;html=1;align=center;" vertex="1" parent="1">
          <mxGeometry x="40" y="-230" width="100" height="40" as="geometry" />
        </mxCell>
        <mxCell id="0hqF8xnQqfK9WC91nhkx-25" value="Correo&lt;div&gt;Electrónico&lt;/div&gt;" style="ellipse;whiteSpace=wrap;html=1;align=center;" vertex="1" parent="1">
          <mxGeometry x="40" y="-170" width="100" height="40" as="geometry" />
        </mxCell>
        <mxCell id="0hqF8xnQqfK9WC91nhkx-26" value="Telefono" style="ellipse;whiteSpace=wrap;html=1;align=center;" vertex="1" parent="1">
          <mxGeometry x="40" y="-350" width="100" height="40" as="geometry" />
        </mxCell>
        <mxCell id="0hqF8xnQqfK9WC91nhkx-27" value="Celular" style="ellipse;whiteSpace=wrap;html=1;align=center;" vertex="1" parent="1">
          <mxGeometry x="300" y="-230" width="100" height="40" as="geometry" />
        </mxCell>
        <mxCell id="0hqF8xnQqfK9WC91nhkx-28" value="Fax" style="ellipse;whiteSpace=wrap;html=1;align=center;" vertex="1" parent="1">
          <mxGeometry x="300" y="-360" width="100" height="40" as="geometry" />
        </mxCell>
        <mxCell id="0hqF8xnQqfK9WC91nhkx-29" value="Zona" style="ellipse;whiteSpace=wrap;html=1;align=center;" vertex="1" parent="1">
          <mxGeometry x="300" y="-290" width="100" height="40" as="geometry" />
        </mxCell>
        <mxCell id="0hqF8xnQqfK9WC91nhkx-30" value="Sector" style="ellipse;whiteSpace=wrap;html=1;align=center;" vertex="1" parent="1">
          <mxGeometry x="300" y="-170" width="100" height="40" as="geometry" />
        </mxCell>
        <mxCell id="0hqF8xnQqfK9WC91nhkx-32" value="" style="endArrow=none;html=1;rounded=0;entryX=1;entryY=0;entryDx=0;entryDy=0;exitX=0;exitY=1;exitDx=0;exitDy=0;" edge="1" parent="1" source="0hqF8xnQqfK9WC91nhkx-22" target="0hqF8xnQqfK9WC91nhkx-26">
          <mxGeometry relative="1" as="geometry">
            <mxPoint x="192.5" y="-300" as="sourcePoint" />
            <mxPoint x="247.5" y="-274" as="targetPoint" />
          </mxGeometry>
        </mxCell>
        <mxCell id="0hqF8xnQqfK9WC91nhkx-33" value="" style="endArrow=none;html=1;rounded=0;entryX=0;entryY=0;entryDx=0;entryDy=0;exitX=0;exitY=1;exitDx=0;exitDy=0;" edge="1" parent="1" target="0hqF8xnQqfK9WC91nhkx-28">
          <mxGeometry relative="1" as="geometry">
            <mxPoint x="270" y="-370" as="sourcePoint" />
            <mxPoint x="225" y="-344" as="targetPoint" />
          </mxGeometry>
        </mxCell>
        <mxCell id="0hqF8xnQqfK9WC91nhkx-34" value="" style="endArrow=none;html=1;rounded=0;entryX=0.911;entryY=0.109;entryDx=0;entryDy=0;exitX=0.086;exitY=1.04;exitDx=0;exitDy=0;exitPerimeter=0;entryPerimeter=0;" edge="1" parent="1" source="0hqF8xnQqfK9WC91nhkx-22" target="0hqF8xnQqfK9WC91nhkx-23">
          <mxGeometry relative="1" as="geometry">
            <mxPoint x="190" y="-350" as="sourcePoint" />
            <mxPoint x="145" y="-324" as="targetPoint" />
          </mxGeometry>
        </mxCell>
        <mxCell id="0hqF8xnQqfK9WC91nhkx-35" value="" style="endArrow=none;html=1;rounded=0;entryX=1;entryY=0;entryDx=0;entryDy=0;exitX=0.201;exitY=1.078;exitDx=0;exitDy=0;exitPerimeter=0;" edge="1" parent="1" source="0hqF8xnQqfK9WC91nhkx-22" target="0hqF8xnQqfK9WC91nhkx-24">
          <mxGeometry relative="1" as="geometry">
            <mxPoint x="200" y="-340" as="sourcePoint" />
            <mxPoint x="155" y="-314" as="targetPoint" />
          </mxGeometry>
        </mxCell>
        <mxCell id="0hqF8xnQqfK9WC91nhkx-36" value="" style="endArrow=none;html=1;rounded=0;entryX=1;entryY=0.5;entryDx=0;entryDy=0;exitX=0.392;exitY=1.078;exitDx=0;exitDy=0;exitPerimeter=0;" edge="1" parent="1" source="0hqF8xnQqfK9WC91nhkx-22" target="0hqF8xnQqfK9WC91nhkx-25">
          <mxGeometry relative="1" as="geometry">
            <mxPoint x="210" y="-330" as="sourcePoint" />
            <mxPoint x="165" y="-304" as="targetPoint" />
          </mxGeometry>
        </mxCell>
        <mxCell id="0hqF8xnQqfK9WC91nhkx-37" value="" style="endArrow=none;html=1;rounded=0;entryX=0;entryY=0;entryDx=0;entryDy=0;exitX=0.913;exitY=1.059;exitDx=0;exitDy=0;exitPerimeter=0;" edge="1" parent="1" source="0hqF8xnQqfK9WC91nhkx-22" target="0hqF8xnQqfK9WC91nhkx-29">
          <mxGeometry relative="1" as="geometry">
            <mxPoint x="220" y="-320" as="sourcePoint" />
            <mxPoint x="175" y="-294" as="targetPoint" />
          </mxGeometry>
        </mxCell>
        <mxCell id="0hqF8xnQqfK9WC91nhkx-38" value="" style="endArrow=none;html=1;rounded=0;entryX=0;entryY=0;entryDx=0;entryDy=0;exitX=0.913;exitY=1.059;exitDx=0;exitDy=0;exitPerimeter=0;" edge="1" parent="1" target="0hqF8xnQqfK9WC91nhkx-27">
          <mxGeometry relative="1" as="geometry">
            <mxPoint x="246" y="-370" as="sourcePoint" />
            <mxPoint x="300" y="-286" as="targetPoint" />
          </mxGeometry>
        </mxCell>
        <mxCell id="0hqF8xnQqfK9WC91nhkx-39" value="" style="endArrow=none;html=1;rounded=0;entryX=0;entryY=0.5;entryDx=0;entryDy=0;exitX=0.913;exitY=1.059;exitDx=0;exitDy=0;exitPerimeter=0;" edge="1" parent="1" target="0hqF8xnQqfK9WC91nhkx-30">
          <mxGeometry relative="1" as="geometry">
            <mxPoint x="230" y="-370" as="sourcePoint" />
            <mxPoint x="299" y="-224" as="targetPoint" />
          </mxGeometry>
        </mxCell>
        <mxCell id="0hqF8xnQqfK9WC91nhkx-40" value="Vendedor" style="whiteSpace=wrap;html=1;align=center;" vertex="1" parent="1">
          <mxGeometry x="520" y="-410" width="100" height="40" as="geometry" />
        </mxCell>
        <mxCell id="0hqF8xnQqfK9WC91nhkx-41" value="Nombre" style="ellipse;whiteSpace=wrap;html=1;align=center;" vertex="1" parent="1">
          <mxGeometry x="470" y="-340" width="100" height="40" as="geometry" />
        </mxCell>
        <mxCell id="0hqF8xnQqfK9WC91nhkx-42" value="Celular" style="ellipse;whiteSpace=wrap;html=1;align=center;" vertex="1" parent="1">
          <mxGeometry x="470" y="-240" width="100" height="40" as="geometry" />
        </mxCell>
        <mxCell id="0hqF8xnQqfK9WC91nhkx-43" value="Correo" style="ellipse;whiteSpace=wrap;html=1;align=center;" vertex="1" parent="1">
          <mxGeometry x="460" y="-290" width="100" height="40" as="geometry" />
        </mxCell>
        <mxCell id="0hqF8xnQqfK9WC91nhkx-44" value="Facturar" style="ellipse;whiteSpace=wrap;html=1;align=center;" vertex="1" parent="1">
          <mxGeometry x="470" y="-180" width="100" height="40" as="geometry" />
        </mxCell>
        <mxCell id="0hqF8xnQqfK9WC91nhkx-45" value="Cotizar" style="ellipse;whiteSpace=wrap;html=1;align=center;" vertex="1" parent="1">
          <mxGeometry x="600" y="-230" width="100" height="40" as="geometry" />
        </mxCell>
        <mxCell id="0hqF8xnQqfK9WC91nhkx-46" value="Cotización" style="whiteSpace=wrap;html=1;align=center;" vertex="1" parent="1">
          <mxGeometry x="430" y="-750" width="100" height="40" as="geometry" />
        </mxCell>
        <mxCell id="0hqF8xnQqfK9WC91nhkx-48" value="Cliente" style="ellipse;whiteSpace=wrap;html=1;align=center;" vertex="1" parent="1">
          <mxGeometry x="370" y="-700" width="100" height="40" as="geometry" />
        </mxCell>
        <mxCell id="0hqF8xnQqfK9WC91nhkx-49" value="Fecha&lt;div&gt;Cotización&lt;/div&gt;" style="ellipse;whiteSpace=wrap;html=1;align=center;" vertex="1" parent="1">
          <mxGeometry x="350" y="-630" width="100" height="40" as="geometry" />
        </mxCell>
        <mxCell id="0hqF8xnQqfK9WC91nhkx-50" value="MesProyectado&lt;div&gt;Cierre&lt;/div&gt;" style="ellipse;whiteSpace=wrap;html=1;align=center;" vertex="1" parent="1">
          <mxGeometry x="540" y="-680" width="100" height="40" as="geometry" />
        </mxCell>
        <mxCell id="0hqF8xnQqfK9WC91nhkx-51" value="Vendedor" style="ellipse;whiteSpace=wrap;html=1;align=center;" vertex="1" parent="1">
          <mxGeometry x="500" y="-630" width="100" height="40" as="geometry" />
        </mxCell>
        <mxCell id="0hqF8xnQqfK9WC91nhkx-52" value="CierreFinal" style="ellipse;whiteSpace=wrap;html=1;align=center;" vertex="1" parent="1">
          <mxGeometry x="580" y="-750" width="100" height="40" as="geometry" />
        </mxCell>
        <mxCell id="0hqF8xnQqfK9WC91nhkx-53" value="Probabilidad" style="ellipse;whiteSpace=wrap;html=1;align=center;" vertex="1" parent="1">
          <mxGeometry x="570" y="-830" width="100" height="40" as="geometry" />
        </mxCell>
        <mxCell id="0hqF8xnQqfK9WC91nhkx-54" value="OrdenDeCompra" style="ellipse;whiteSpace=wrap;html=1;align=center;" vertex="1" parent="1">
          <mxGeometry x="650" y="-650" width="100" height="40" as="geometry" />
        </mxCell>
        <mxCell id="0hqF8xnQqfK9WC91nhkx-55" value="TipoCotización" style="ellipse;whiteSpace=wrap;html=1;align=center;" vertex="1" parent="1">
          <mxGeometry x="660" y="-710" width="100" height="40" as="geometry" />
        </mxCell>
        <mxCell id="0hqF8xnQqfK9WC91nhkx-56" value="Descripcion" style="ellipse;whiteSpace=wrap;html=1;align=center;" vertex="1" parent="1">
          <mxGeometry x="680" y="-790" width="100" height="40" as="geometry" />
        </mxCell>
        <mxCell id="0hqF8xnQqfK9WC91nhkx-57" value="Zona" style="ellipse;whiteSpace=wrap;html=1;align=center;" vertex="1" parent="1">
          <mxGeometry x="330" y="-830" width="100" height="40" as="geometry" />
        </mxCell>
        <mxCell id="0hqF8xnQqfK9WC91nhkx-58" value="Sector" style="ellipse;whiteSpace=wrap;html=1;align=center;" vertex="1" parent="1">
          <mxGeometry x="430" y="-870" width="100" height="40" as="geometry" />
        </mxCell>
        <mxCell id="0hqF8xnQqfK9WC91nhkx-59" value="Estado" style="ellipse;whiteSpace=wrap;html=1;align=center;" vertex="1" parent="1">
          <mxGeometry x="260" y="-760" width="100" height="40" as="geometry" />
        </mxCell>
        <mxCell id="0hqF8xnQqfK9WC91nhkx-60" value="ListaArticulos" style="whiteSpace=wrap;html=1;align=center;" vertex="1" parent="1">
          <mxGeometry x="-90" y="-690" width="100" height="40" as="geometry" />
        </mxCell>
        <mxCell id="0hqF8xnQqfK9WC91nhkx-61" value="CodigoProducto" style="ellipse;whiteSpace=wrap;html=1;align=center;" vertex="1" parent="1">
          <mxGeometry x="-180" y="-610" width="100" height="40" as="geometry" />
        </mxCell>
        <mxCell id="0hqF8xnQqfK9WC91nhkx-62" value="Cantidad" style="ellipse;whiteSpace=wrap;html=1;align=center;" vertex="1" parent="1">
          <mxGeometry x="-50" y="-610" width="100" height="40" as="geometry" />
        </mxCell>
        <mxCell id="0hqF8xnQqfK9WC91nhkx-63" value="Monto" style="ellipse;whiteSpace=wrap;html=1;align=center;" vertex="1" parent="1">
          <mxGeometry x="80" y="-610" width="100" height="40" as="geometry" />
        </mxCell>
        <mxCell id="0hqF8xnQqfK9WC91nhkx-64" value="Cotizaciones" style="whiteSpace=wrap;html=1;align=center;" vertex="1" parent="1">
          <mxGeometry x="-600" y="-670" width="100" height="40" as="geometry" />
        </mxCell>
        <mxCell id="0hqF8xnQqfK9WC91nhkx-65" value="Sector" style="ellipse;whiteSpace=wrap;html=1;align=center;" vertex="1" parent="1">
          <mxGeometry x="-690" y="-590" width="100" height="40" as="geometry" />
        </mxCell>
        <mxCell id="0hqF8xnQqfK9WC91nhkx-66" value="Por&lt;div&gt;Zona&lt;/div&gt;" style="ellipse;whiteSpace=wrap;html=1;align=center;" vertex="1" parent="1">
          <mxGeometry x="-580" y="-590" width="100" height="40" as="geometry" />
        </mxCell>
        <mxCell id="0hqF8xnQqfK9WC91nhkx-67" value="Clientes" style="ellipse;whiteSpace=wrap;html=1;align=center;" vertex="1" parent="1">
          <mxGeometry x="-470" y="-590" width="100" height="40" as="geometry" />
        </mxCell>
        <mxCell id="0hqF8xnQqfK9WC91nhkx-68" value="Montos" style="ellipse;whiteSpace=wrap;html=1;align=center;" vertex="1" parent="1">
          <mxGeometry x="-570" y="-520" width="100" height="40" as="geometry" />
        </mxCell>
        <mxCell id="0hqF8xnQqfK9WC91nhkx-69" value="Fecha" style="ellipse;whiteSpace=wrap;html=1;align=center;" vertex="1" parent="1">
          <mxGeometry x="-470" y="-520" width="100" height="40" as="geometry" />
        </mxCell>
        <mxCell id="0hqF8xnQqfK9WC91nhkx-70" value="Cierre&lt;div&gt;Cotización&lt;/div&gt;" style="ellipse;whiteSpace=wrap;html=1;align=center;" vertex="1" parent="1">
          <mxGeometry x="-700" y="-520" width="100" height="40" as="geometry" />
        </mxCell>
        <mxCell id="0hqF8xnQqfK9WC91nhkx-71" value="Factura" style="whiteSpace=wrap;html=1;align=center;" vertex="1" parent="1">
          <mxGeometry x="1175" y="-480" width="100" height="40" as="geometry" />
        </mxCell>
        <mxCell id="0hqF8xnQqfK9WC91nhkx-72" value="Numero" style="ellipse;whiteSpace=wrap;html=1;align=center;" vertex="1" parent="1">
          <mxGeometry x="1110" y="-400" width="100" height="40" as="geometry" />
        </mxCell>
        <mxCell id="0hqF8xnQqfK9WC91nhkx-73" value="NombreLocal" style="ellipse;whiteSpace=wrap;html=1;align=center;" vertex="1" parent="1">
          <mxGeometry x="1250" y="-400" width="100" height="40" as="geometry" />
        </mxCell>
        <mxCell id="0hqF8xnQqfK9WC91nhkx-74" value="CedulaJuridica&lt;div&gt;Local&lt;/div&gt;" style="ellipse;whiteSpace=wrap;html=1;align=center;" vertex="1" parent="1">
          <mxGeometry x="1140" y="-350" width="100" height="40" as="geometry" />
        </mxCell>
        <mxCell id="0hqF8xnQqfK9WC91nhkx-76" value="Telefonos&lt;div&gt;Local&lt;/div&gt;" style="ellipse;shape=doubleEllipse;margin=3;whiteSpace=wrap;html=1;align=center;" vertex="1" parent="1">
          <mxGeometry x="1270" y="-340" width="100" height="40" as="geometry" />
        </mxCell>
        <mxCell id="0hqF8xnQqfK9WC91nhkx-77" value="CedulaCliente" style="ellipse;whiteSpace=wrap;html=1;align=center;" vertex="1" parent="1">
          <mxGeometry x="1150" y="-250" width="100" height="40" as="geometry" />
        </mxCell>
        <mxCell id="0hqF8xnQqfK9WC91nhkx-78" value="NombreCliente" style="ellipse;whiteSpace=wrap;html=1;align=center;" vertex="1" parent="1">
          <mxGeometry x="1270" y="-240" width="100" height="40" as="geometry" />
        </mxCell>
      </root>
    </mxGraphModel>
  </diagram>
</mxfile>
